# xmcd
#
# Track frame offsets: 
#        150
#        16455
#        27776
#        41805
#        62916
#        88048
#        103160
#        118832
#        131549
#        147586
#        158347
#        178878
#
# Disc length: 2611 seconds
#
# Revision: 0
# Processed by: cddbd v1.5.2PL0 Copyright (c) Steve Scherf et al.
# Submitted via: ExactAudioCopy v0.95b3
#
DISCID=a80a310c
DTITLE=Mikey Jr - Look Inside My Pocket
DYEAR=2006
DGENRE=Blues
TTITLE0=Had A Woman
TTITLE1=All About You
TTITLE2=Cheapskate
TTITLE3=Happy Anniversary
TTITLE4=I'm Broke
TTITLE5=Summertime
TTITLE6=I Ain't Your Baby Now
TTITLE7=Look Inside My Pocket
TTITLE8=What Have You Done
TTITLE9=Whiskey By The Glass
TTITLE10=I Need My Baby Back
TTITLE11=Down At The Juke Joint
EXTD=
EXTT0=
EXTT1=
EXTT2=
EXTT3=
EXTT4=
EXTT5=
EXTT6=
EXTT7=
EXTT8=
EXTT9=
EXTT10=
EXTT11=
PLAYORDER=
